  0
SECTION
  2
HEADER
  9
$EXTMIN
 10
0
 20
70.003571337468188
 30
0.0
  9
$EXTMAX
 10
99
 20
0
 30
0.0
  0
ENDSEC
  0
SECTION
  2
ENTITIES
  0
LINE
100
AcDbEntiry
  8
0
  6
Continuous
100
AcDbLine
 10
0
 20
0
 30
0.0
 11
22.225000000000001
 21
0
 31
0.0
  0
LINE
100
AcDbEntiry
  8
0
  6
Continuous
100
AcDbLine
 10
22.225000000000001
 20
0
 30
0.0
 11
60.428470014964162
 21
0
 31
0.0
  0
LINE
100
AcDbEntiry
  8
0
  6
Continuous
100
AcDbLine
 10
60.428470014964162
 20
0
 30
0.0
 11
64.380542523894974
 21
0
 31
0.0
  0
LINE
100
AcDbEntiry
  8
0
  6
Continuous
100
AcDbLine
 10
64.380542523894974
 20
0
 30
0.0
 11
65
 21
0
 31
0.0
  0
LINE
100
AcDbEntiry
  8
0
  6
Continuous
100
AcDbLine
 10
65
 20
0
 30
0.0
 11
65.5
 21
0
 31
0.0
  0
LINE
100
AcDbEntiry
  8
0
  6
Continuous
100
AcDbLine
 10
65.5
 20
0
 30
0.0
 11
66
 21
0
 31
0.0
  0
LINE
100
AcDbEntiry
  8
0
  6
Continuous
100
AcDbLine
 10
66
 20
0
 30
0.0
 11
99
 21
0
 31
0.0
  0
LINE
100
AcDbEntiry
  8
0
  6
Continuous
100
AcDbLine
 10
0
 20
0
 30
0.0
 11
15.715448211871021
 21
15.715448211871035
 31
0.0
  0
LINE
100
AcDbEntiry
  8
0
  6
Continuous
100
AcDbLine
 10
15.715448271070812
 20
15.715448271070825
 30
0.0
 11
42.729381005128367
 21
42.72938100512836
 31
0.0
  0
LINE
100
AcDbEntiry
  8
0
  6
Continuous
100
AcDbLine
 10
42.729380992955299
 20
42.729380992955285
 30
0.0
 11
45.523918274287404
 21
45.523918274287389
 31
0.0
  0
LINE
100
AcDbEntiry
  8
0
  6
Continuous
100
AcDbLine
 10
45.523918274287404
 20
45.523918274287389
 30
0.0
 11
45.961940777125584
 21
45.961940777125569
 31
0.0
  0
LINE
100
AcDbEntiry
  8
0
  6
Continuous
100
AcDbLine
 10
45.961940777125584
 20
45.961940777125569
 30
0.0
 11
46.315494167718867
 21
46.315494167718853
 31
0.0
  0
LINE
100
AcDbEntiry
  8
0
  6
Continuous
100
AcDbLine
 10
46.315494167718867
 20
46.315494167718853
 30
0.0
 11
46.669047558312144
 21
46.66904755831213
 31
0.0
  0
LINE
100
AcDbEntiry
  8
0
  6
Continuous
100
AcDbLine
 10
46.669047558312144
 20
46.66904755831213
 30
0.0
 11
70.003571337468216
 21
70.003571337468173
 31
0.0
  0
LINE
100
AcDbEntiry
  8
0
  6
Continuous
100
AcDbLine
 10
65.93574420544428
 20
2.9116380396987269
 30
0.0
 11
67.133174913330606
 21
2.9901217947749039
 31
0.0
  0
LINE
100
AcDbEntiry
  8
0
  6
Continuous
100
AcDbLine
 10
67.677591135681254
 20
2.0750190140221259
 30
0.0
 11
67.133174913330606
 21
2.9901217947748968
 31
0.0
  0
LINE
100
AcDbEntiry
  8
0
  6
Continuous
100
AcDbLine
 10
85.00238512868394
 20
2.0750147452925023
 30
0.0
 11
72.105575373264088
 21
2.0750179229922758
 31
0.0
  0
LINE
100
AcDbEntiry
  8
0
  6
Continuous
100
AcDbLine
 10
72.105575373264088
 20
2.0750179229922758
 30
0.0
 11
67.677591135681254
 21
2.0750190140221334
 31
0.0
  0
LINE
100
AcDbEntiry
  8
0
  6
Continuous
100
AcDbLine
 10
87.141695402459803
 20
4.3591325140489587
 30
0.0
 11
86.965167086611984
 21
7.0524341533815331
 31
0.0
  0
LINE
100
AcDbEntiry
  8
0
  6
Continuous
100
AcDbLine
 10
67.369444292313418
 20
6.7764313308608113
 30
0.0
 11
71.759546368501162
 21
7.3544003342988979
 31
0.0
  0
LINE
100
AcDbEntiry
  8
0
  6
Continuous
100
AcDbLine
 10
71.759546368501162
 20
7.3544003342988979
 30
0.0
 11
84.546021713854728
 21
9.0377749539745125
 31
0.0
  0
LINE
100
AcDbEntiry
  8
0
  6
Continuous
100
AcDbLine
 10
66.949130507676969
 20
5.7980968047683339
 30
0.0
 11
67.369444292313418
 21
6.7764313308608113
 31
0.0
  0
LINE
100
AcDbEntiry
  8
0
  6
Continuous
100
AcDbLine
 10
65.751699799790657
 20
5.719613049692156
 30
0.0
 11
66.949130507676969
 21
5.7980968047683339
 31
0.0
  0
LINE
100
AcDbEntiry
  8
0
  6
Continuous
100
AcDbLine
 10
64.991609746900792
 20
11.493070194971791
 30
0.0
 11
66.168552083384668
 21
11.727178581391152
 31
0.0
  0
LINE
100
AcDbEntiry
  8
0
  6
Continuous
100
AcDbLine
 10
66.827755630944409
 20
10.890965208271187
 30
0.0
 11
66.168552083384668
 21
11.727178581391154
 31
0.0
  0
LINE
100
AcDbEntiry
  8
0
  6
Continuous
100
AcDbLine
 10
66.827755630944409
 20
10.890965208271183
 30
0.0
 11
71.217857991948122
 21
11.468932048317333
 31
0.0
  0
LINE
100
AcDbEntiry
  8
0
  6
Continuous
100
AcDbLine
 10
71.217857991948122
 20
11.468932048317333
 30
0.0
 11
84.004334166847798
 21
13.152300366964591
 31
0.0
  0
LINE
100
AcDbEntiry
  8
0
  6
Continuous
100
AcDbLine
 10
85.827205149729139
 20
15.69611321558399
 30
0.0
 11
85.300640650612735
 21
18.343331717143297
 31
0.0
  0
LINE
100
AcDbEntiry
  8
0
  6
Continuous
100
AcDbLine
 10
65.908587578765406
 20
15.511935056891001
 30
0.0
 11
70.185691629868245
 21
16.657982762845162
 31
0.0
  0
LINE
100
AcDbEntiry
  8
0
  6
Continuous
100
AcDbLine
 10
70.185691629868245
 20
16.657982762845162
 30
0.0
 11
82.643052426915816
 21
19.995925818034213
 31
0.0
  0
LINE
100
AcDbEntiry
  8
0
  6
Continuous
100
AcDbLine
 10
65.619567917231265
 20
14.487108360445838
 30
0.0
 11
65.908587578765406
 21
15.511935056891003
 31
0.0
  0
LINE
100
AcDbEntiry
  8
0
  6
Continuous
100
AcDbLine
 10
64.442625580747404
 20
14.252999974026476
 30
0.0
 11
65.619567917231265
 21
14.487108360445838
 31
0.0
  0
LINE
100
AcDbEntiry
  8
0
  6
Continuous
100
AcDbLine
 10
62.935450826509417
 20
19.877852732727824
 30
0.0
 11
64.071766981903536
 21
20.263580091091626
 31
0.0
  0
LINE
100
AcDbEntiry
  8
0
  6
Continuous
100
AcDbLine
 10
64.83447869920785
 20
19.520563968260696
 30
0.0
 11
64.071766981903536
 21
20.263580091091633
 31
0.0
  0
LINE
100
AcDbEntiry
  8
0
  6
Continuous
100
AcDbLine
 10
64.83447869920785
 20
19.520563968260699
 30
0.0
 11
69.111583315069339
 21
20.666609566506992
 31
0.0
  0
LINE
100
AcDbEntiry
  8
0
  6
Continuous
100
AcDbLine
 10
69.111583315069339
 20
20.666609566506992
 30
0.0
 11
81.568945757015385
 21
24.00454648285135
 31
0.0
  0
LINE
100
AcDbEntiry
  8
0
  6
Continuous
100
AcDbLine
 10
83.044187621089776
 20
26.764529068215651
 30
0.0
 11
82.176596603275968
 21
29.320369789492382
 31
0.0
  0
LINE
100
AcDbEntiry
  8
0
  6
Continuous
100
AcDbLine
 10
63.320016658431996
 20
23.982025273376884
 30
0.0
 11
67.410940248298303
 21
25.676542487853798
 31
0.0
  0
LINE
100
AcDbEntiry
  8
0
  6
Continuous
100
AcDbLine
 10
67.410940248298303
 20
25.676542487853798
 30
0.0
 11
79.326037599969482
 21
30.611940847429334
 31
0.0
  0
LINE
100
AcDbEntiry
  8
0
  6
Continuous
100
AcDbLine
 10
63.167236326540433
 20
22.928241475490854
 30
0.0
 11
63.320016658431989
 21
23.982025273376887
 31
0.0
  0
LINE
100
AcDbEntiry
  8
0
  6
Continuous
100
AcDbLine
 10
62.030920171146313
 20
22.542514117127055
 30
0.0
 11
63.167236326540426
 21
22.92824147549085
 31
0.0
  0
LINE
100
AcDbEntiry
  8
0
  6
Continuous
100
AcDbLine
 10
59.80244889347297
 20
27.922519699044933
 30
0.0
 11
60.878696183312201
 21
28.453266127307742
 31
0.0
  0
LINE
100
AcDbEntiry
  8
0
  6
Continuous
100
AcDbLine
 10
61.731865861414384
 20
27.816160466630478
 30
0.0
 11
60.878696183312208
 21
28.453266127307742
 31
0.0
  0
LINE
100
AcDbEntiry
  8
0
  6
Continuous
100
AcDbLine
 10
61.731865861414384
 20
27.816160466630475
 30
0.0
 11
65.822790286318835
 21
29.510675665147044
 31
0.0
  0
LINE
100
AcDbEntiry
  8
0
  6
Continuous
100
AcDbLine
 10
65.822790286318835
 20
29.510675665147044
 30
0.0
 11
77.737890070096157
 21
34.446068153098899
 31
0.0
  0
LINE
100
AcDbEntiry
  8
0
  6
Continuous
100
AcDbLine
 10
78.840261018054989
 20
37.374996407960779
 30
0.0
 11
77.646488204400185
 21
39.795728205600973
 31
0.0
  0
LINE
100
AcDbEntiry
  8
0
  6
Continuous
100
AcDbLine
 10
59.648022697447544
 20
32.041776388361733
 30
0.0
 11
63.482768989236384
 21
34.255769452012757
 31
0.0
  0
LINE
100
AcDbEntiry
  8
0
  6
Continuous
100
AcDbLine
 10
63.482768989236384
 20
34.255769452012757
 30
0.0
 11
74.651732276354991
 21
40.704177081691533
 31
0.0
  0
LINE
100
AcDbEntiry
  8
0
  6
Continuous
100
AcDbLine
 10
59.634095809035919
 20
30.977066021980722
 30
0.0
 11
59.648022697447551
 21
32.041776388361733
 31
0.0
  0
LINE
100
AcDbEntiry
  8
0
  6
Continuous
100
AcDbLine
 10
58.55784851919671
 20
30.446319593717917
 30
0.0
 11
59.634095809035919
 21
30.977066021980722
 31
0.0
  0
LINE
100
AcDbEntiry
  8
0
  6
Continuous
100
AcDbLine
 10
55.646210479497981
 20
35.489424611726356
 30
0.0
 11
56.643974014261033
 21
36.156108891349881
 31
0.0
  0
LINE
100
AcDbEntiry
  8
0
  6
Continuous
100
AcDbLine
 10
57.573003683425448
 20
35.635814747319536
 30
0.0
 11
56.643974014261033
 21
36.156108891349888
 31
0.0
  0
LINE
100
AcDbEntiry
  8
0
  6
Continuous
100
AcDbLine
 10
57.573003683425448
 20
35.635814747319536
 30
0.0
 11
61.407751066244188
 21
37.849805921251381
 31
0.0
  0
LINE
100
AcDbEntiry
  8
0
  6
Continuous
100
AcDbLine
 10
61.407751066244188
 20
37.849805921251381
 30
0.0
 11
72.576717531062627
 21
44.298208046992571
 31
0.0
  0
LINE
100
AcDbEntiry
  8
0
  6
Continuous
100
AcDbLine
 10
73.287355690351347
 20
47.345967196859029
 30
0.0
 11
71.787826864673548
 21
49.590170678651397
 31
0.0
  0
LINE
100
AcDbEntiry
  8
0
  6
Continuous
100
AcDbLine
 10
54.955434530553568
 20
39.553283825682946
 30
0.0
 11
58.468389952019926
 21
42.248870703354186
 31
0.0
  0
LINE
100
AcDbEntiry
  8
0
  6
Continuous
100
AcDbLine
 10
58.468389952019926
 20
42.248870703354186
 30
0.0
 11
68.700115116121708
 21
50.09995356075602
 31
0.0
  0
LINE
100
AcDbEntiry
  8
0
  6
Continuous
100
AcDbLine
 10
55.080599378543866
 20
38.495864380369241
 30
0.0
 11
54.955434530553568
 21
39.553283825682954
 31
0.0
  0
LINE
100
AcDbEntiry
  8
0
  6
Continuous
100
AcDbLine
 10
54.082835843780821
 20
37.82918010074571
 30
0.0
 11
55.080599378543866
 21
38.495864380369234
 31
0.0
  0
LINE
100
AcDbEntiry
  8
0
  6
Continuous
100
AcDbLine
 10
50.53784997617452
 20
42.449095629773744
 30
0.0
 11
51.440057745149289
 21
43.240310607893825
 31
0.0
  0
LINE
100
AcDbEntiry
  8
0
  6
Continuous
100
AcDbLine
 10
52.429051450160827
 20
42.845730357567533
 30
0.0
 11
51.440057745149296
 21
43.240310607893832
 31
0.0
  0
LINE
100
AcDbEntiry
  8
0
  6
Continuous
100
AcDbLine
 10
52.429051450160827
 20
42.845730357567525
 30
0.0
 11
55.942008199981018
 21
45.541315504094378
 31
0.0
  0
LINE
100
AcDbEntiry
  8
0
  6
Continuous
100
AcDbLine
 10
55.942008199981018
 20
45.541315504094378
 30
0.0
 11
66.173737233004985
 21
53.39239331941863
 31
0.0
  0
LINE
100
AcDbEntiry
  8
0
  6
Continuous
100
AcDbLine
 10
66.480483387692047
 20
56.506835360236956
 30
0.0
 11
64.700855903946561
 21
58.536111582397297
 31
0.0
  0
LINE
100
AcDbEntiry
  8
0
  6
Continuous
100
AcDbLine
 10
49.322543642316852
 20
46.388023610504717
 30
0.0
 11
52.453600552224188
 21
49.519082063361346
 31
0.0
  0
LINE
100
AcDbEntiry
  8
0
  6
Continuous
100
AcDbLine
 10
52.453600552224188
 20
49.519082063361346
 30
0.0
 11
61.573019938981204
 21
58.638505944064676
 31
0.0
  0
LINE
100
AcDbEntiry
  8
0
  6
Continuous
100
AcDbLine
 10
49.584658621457692
 20
45.355987826139668
 30
0.0
 11
49.322543642316845
 21
46.388023610504717
 31
0.0
  0
LINE
100
AcDbEntiry
  8
0
  6
Continuous
100
AcDbLine
 10
48.682450852482937
 20
44.564772848019594
 30
0.0
 11
49.584658621457692
 21
45.355987826139675
 31
0.0
  0
LINE
100
AcDbEntiry
  8
0
  6
Continuous
100
AcDbLine
 10
72.105575373264088
 20
2.0750179229922758
 30
0.0
 11
71.759546368501162
 21
7.3544003342988979
 31
0.0
  0
LINE
100
AcDbEntiry
  8
0
  6
Continuous
100
AcDbLine
 10
71.217857991948122
 20
11.468932048317333
 30
0.0
 11
70.185691629868245
 21
16.657982762845162
 31
0.0
  0
LINE
100
AcDbEntiry
  8
0
  6
Continuous
100
AcDbLine
 10
64.374955828569682
 20
2.9756177722979498
 30
0.0
 11
64.096469546386572
 21
3.3823344534586246
 31
0.0
  0
LINE
100
AcDbEntiry
  8
0
  6
Continuous
100
AcDbLine
 10
64.380542523894974
 20
0
 30
0.0
 11
64.374955828569682
 21
2.9756177722979529
 31
0.0
  0
LINE
100
AcDbEntiry
  8
0
  6
Continuous
100
AcDbLine
 10
47.624046829363508
 20
43.415888655170619
 30
0.0
 11
45.523918274287404
 21
45.523917931311956
 31
0.0
  0
LINE
100
AcDbEntiry
  8
0
  6
Continuous
100
AcDbLine
 10
47.714719599102963
 20
42.931377170974642
 30
0.0
 11
47.624046829363508
 21
43.415888655170619
 31
0.0
  0
LINE
100
AcDbEntiry
  8
0
  6
Continuous
100
AcDbLine
 10
55.057299999999991
 20
1.0973945887358312
 30
0.0
 11
38.597014999999999
 21
14.666211000000001
 31
0.0
  0
LINE
100
AcDbEntiry
  8
0
  6
Continuous
100
AcDbLine
 10
38.597014999999999
 20
14.666211000000001
 30
0.0
 11
37.530287000000001
 21
15.545553999999999
 31
0.0
  0
LINE
100
AcDbEntiry
  8
0
  6
Continuous
100
AcDbLine
 10
55.057299999999991
 20
1.0973945887358312
 30
0.0
 11
58.305896296936872
 21
1.1928975510539268
 31
0.0
  0
LINE
100
AcDbEntiry
  8
0
  6
Continuous
100
AcDbLine
 10
58.305896296936872
 20
1.1928975510539246
 30
0.0
 11
58.598690827871721
 21
1.361835264696019
 31
0.0
  0
LINE
100
AcDbEntiry
  8
0
  6
Continuous
100
AcDbLine
 10
58.598690827871721
 20
1.3618352646960215
 30
0.0
 11
58.801371670047651
 21
1.5708758310578166
 31
0.0
  0
LINE
100
AcDbEntiry
  8
0
  6
Continuous
100
AcDbLine
 10
58.801371670047651
 20
1.5708758310578177
 30
0.0
 11
58.947075261466111
 21
1.818490485744845
 31
0.0
  0
LINE
100
AcDbEntiry
  8
0
  6
Continuous
100
AcDbLine
 10
58.947075261466111
 20
1.818490485744845
 30
0.0
 11
59.099513337707521
 21
2.0775499999421676
 31
0.0
  0
LINE
100
AcDbEntiry
  8
0
  6
Continuous
100
AcDbLine
 10
59.099513337707521
 20
2.0775499999421636
 30
0.0
 11
59.132214195403101
 21
2.255650770538252
 31
0.0
  0
LINE
100
AcDbEntiry
  8
0
  6
Continuous
100
AcDbLine
 10
59.132214195403101
 20
2.255650770538252
 30
0.0
 11
59.170761923351712
 21
2.465595724162652
 31
0.0
  0
LINE
100
AcDbEntiry
  8
0
  6
Continuous
100
AcDbLine
 10
59.170761923351712
 20
2.465595724162652
 30
0.0
 11
59.209908821291215
 21
2.6788039755906641
 31
0.0
  0
LINE
100
AcDbEntiry
  8
0
  6
Continuous
100
AcDbLine
 10
59.209908821291215
 20
2.6788039755906641
 30
0.0
 11
59.247058788866731
 21
2.881136217589142
 31
0.0
  0
LINE
100
AcDbEntiry
  8
0
  6
Continuous
100
AcDbLine
 10
59.24705811614038
 20
2.881136217589142
 30
0.0
 11
59.227078215500782
 21
3.0692223784627899
 31
0.0
  0
LINE
100
AcDbEntiry
  8
0
  6
Continuous
100
AcDbLine
 10
59.227078215500782
 20
3.0692223784627899
 30
0.0
 11
59.15720899240322
 21
3.2147435388338632
 31
0.0
  0
LINE
100
AcDbEntiry
  8
0
  6
Continuous
100
AcDbLine
 10
59.157208992403213
 20
3.2147435388338721
 30
0.0
 11
59.045608448925648
 21
3.3229485524539086
 31
0.0
  0
LINE
100
AcDbEntiry
  8
0
  6
Continuous
100
AcDbLine
 10
59.045608448925648
 20
3.3229485524539086
 30
0.0
 11
58.965484764242284
 21
3.4006344142095273
 31
0.0
  0
LINE
100
AcDbEntiry
  8
0
  6
Continuous
100
AcDbLine
 10
58.807792174056921
 20
3.3868646381643703
 30
0.0
 11
58.965484764242277
 21
3.4006344142095273
 31
0.0
  0
LINE
100
AcDbEntiry
  8
0
  6
Continuous
100
AcDbLine
 10
58.62006805268738
 20
3.3077676709782224
 30
0.0
 11
58.807792174056921
 21
3.3868646381643721
 31
0.0
  0
LINE
100
AcDbEntiry
  8
0
  6
Continuous
100
AcDbLine
 10
58.465149442364343
 20
3.2968598395908311
 30
0.0
 11
58.62006805268738
 21
3.3077676709782224
 31
0.0
  0
LINE
100
AcDbEntiry
  8
0
  6
Continuous
100
AcDbLine
 10
58.052332019786732
 20
3.1860095321200603
 30
0.0
 11
58.465149442364343
 21
3.296859839590832
 31
0.0
  0
LINE
100
AcDbEntiry
  8
0
  6
Continuous
100
AcDbLine
 10
57.458194035563103
 20
2.9454079561761972
 30
0.0
 11
58.052332019786732
 21
3.1860095321200568
 31
0.0
  0
LINE
100
AcDbEntiry
  8
0
  6
Continuous
100
AcDbLine
 10
57.450012813530932
 20
2.702021801976604
 30
0.0
 11
57.458194035563103
 21
2.9454079561761972
 31
0.0
  0
LINE
100
AcDbEntiry
  8
0
  6
Continuous
100
AcDbLine
 10
56.622123720856379
 20
1.8481541579953304
 30
0.0
 11
56.767451132842972
 21
1.9980418373679434
 31
0.0
  0
LINE
100
AcDbEntiry
  8
0
  6
Continuous
100
AcDbLine
 10
56.767451132842972
 20
1.9980418373679434
 30
0.0
 11
57.450012813530932
 21
2.7020218019766009
 31
0.0
  0
LINE
100
AcDbEntiry
  8
0
  6
Continuous
100
AcDbLine
 10
56.622123720856372
 20
1.8481535824869368
 30
0.0
 11
56.09664509189183
 21
2.3582271685389173
 31
0.0
  0
LINE
100
AcDbEntiry
  8
0
  6
Continuous
100
AcDbLine
 10
55.057299999999991
 20
1.097401116716922
 30
0.0
 11
56.096645091891837
 21
2.3582271685389138
 31
0.0
  0
LINE
100
AcDbEntiry
  8
0
  6
Continuous
100
AcDbLine
 10
56.096645091891837
 20
2.3582271685389138
 30
0.0
 11
56.711103000000001
 21
3.1036240000000035
 31
0.0
  0
LINE
100
AcDbEntiry
  8
0
  6
Continuous
100
AcDbLine
 10
56.711103000000008
 20
3.1036239999999964
 30
0.0
 11
40.250818999999993
 21
16.672435
 31
0.0
  0
LINE
100
AcDbEntiry
  8
0
  6
Continuous
100
AcDbLine
 10
40.250818999999993
 20
16.672435
 30
0.0
 11
42.295398999999982
 21
37.906211999999996
 31
0.0
  0
LINE
100
AcDbEntiry
  8
0
  6
Continuous
100
AcDbLine
 10
42.295398999999982
 20
37.906211999999996
 30
0.0
 11
41.333836164387449
 21
37.998799990506988
 31
0.0
  0
LINE
100
AcDbEntiry
  8
0
  6
Continuous
100
AcDbLine
 10
41.333836164387449
 20
37.998799990506988
 30
0.0
 11
39.707369
 21
38.155411000000001
 31
0.0
  0
LINE
100
AcDbEntiry
  8
0
  6
Continuous
100
AcDbLine
 10
41.333836164387449
 20
37.998799990506988
 30
0.0
 11
41.344729164387452
 21
38.731045984171281
 31
0.0
  0
LINE
100
AcDbEntiry
  8
0
  6
Continuous
100
AcDbLine
 10
42.533911164387447
 20
38.712674102389848
 30
0.0
 11
41.55347816438745
 21
38.727820984171288
 31
0.0
  0
LINE
100
AcDbEntiry
  8
0
  6
Continuous
100
AcDbLine
 10
41.55347816438745
 20
38.727820984171288
 30
0.0
 11
41.344729164387452
 21
38.731045984171281
 31
0.0
  0
LINE
100
AcDbEntiry
  8
0
  6
Continuous
100
AcDbLine
 10
42.711796164387472
 20
38.546360984171287
 30
0.0
 11
42.533911164387447
 21
38.712674102389848
 31
0.0
  0
LINE
100
AcDbEntiry
  8
0
  6
Continuous
100
AcDbLine
 10
42.711796164387472
 20
38.546360984171287
 30
0.0
 11
43.302046164387463
 21
38.796348984171274
 31
0.0
  0
LINE
100
AcDbEntiry
  8
0
  6
Continuous
100
AcDbLine
 10
43.302046164387463
 20
38.796348984171281
 30
0.0
 11
43.672335164387448
 21
39.009871984171291
 31
0.0
  0
LINE
100
AcDbEntiry
  8
0
  6
Continuous
100
AcDbLine
 10
43.672335164387448
 20
39.009871984171291
 30
0.0
 11
43.789592164387457
 21
39.111702984171281
 31
0.0
  0
LINE
100
AcDbEntiry
  8
0
  6
Continuous
100
AcDbLine
 10
43.789592164387457
 20
39.111702984171281
 30
0.0
 11
43.978263164387457
 21
39.188513984171301
 31
0.0
  0
LINE
100
AcDbEntiry
  8
0
  6
Continuous
100
AcDbLine
 10
43.978263164387457
 20
39.188513984171301
 30
0.0
 11
44.099505164387473
 21
39.290282984171277
 31
0.0
  0
LINE
100
AcDbEntiry
  8
0
  6
Continuous
100
AcDbLine
 10
44.099505164387473
 20
39.290282984171277
 30
0.0
 11
44.101229164387448
 21
39.401870984171282
 31
0.0
  0
LINE
100
AcDbEntiry
  8
0
  6
Continuous
100
AcDbLine
 10
44.101229164387448
 20
39.401870984171282
 30
0.0
 11
44.103630447894595
 21
39.55729698417128
 31
0.0
  0
LINE
100
AcDbEntiry
  8
0
  6
Continuous
100
AcDbLine
 10
44.103630164387461
 20
39.55729698417128
 30
0.0
 11
44.05013616438746
 21
39.709600984171281
 31
0.0
  0
LINE
100
AcDbEntiry
  8
0
  6
Continuous
100
AcDbLine
 10
44.05013616438746
 20
39.709600984171281
 30
0.0
 11
43.931268164387461
 21
39.856726984171281
 31
0.0
  0
LINE
100
AcDbEntiry
  8
0
  6
Continuous
100
AcDbLine
 10
43.931268164387461
 20
39.856726984171289
 30
0.0
 11
43.761928164387463
 21
39.973527273169019
 31
0.0
  0
LINE
100
AcDbEntiry
  8
0
  6
Continuous
100
AcDbLine
 10
43.761928164387463
 20
39.973527273169019
 30
0.0
 11
43.583486164387459
 21
40.096605560456936
 31
0.0
  0
LINE
100
AcDbEntiry
  8
0
  6
Continuous
100
AcDbLine
 10
43.583486164387459
 20
40.096605560456936
 30
0.0
 11
43.407775164387459
 21
40.217800172362459
 31
0.0
  0
LINE
100
AcDbEntiry
  8
0
  6
Continuous
100
AcDbLine
 10
43.407775164387459
 20
40.217800172362459
 30
0.0
 11
43.258715164387468
 21
40.320612568004371
 31
0.0
  0
LINE
100
AcDbEntiry
  8
0
  6
Continuous
100
AcDbLine
 10
43.258715164387468
 20
40.320617984171278
 30
0.0
 11
42.967743164387457
 21
40.396009984171258
 31
0.0
  0
LINE
100
AcDbEntiry
  8
0
  6
Continuous
100
AcDbLine
 10
42.967743164387457
 20
40.396009984171258
 30
0.0
 11
42.689625164387429
 21
40.468071461756708
 31
0.0
  0
LINE
100
AcDbEntiry
  8
0
  6
Continuous
100
AcDbLine
 10
42.689625164387429
 20
40.468071984171281
 30
0.0
 11
42.398494164387429
 21
40.472568984171282
 31
0.0
  0
LINE
100
AcDbEntiry
  8
0
  6
Continuous
100
AcDbLine
 10
42.072000164387461
 20
40.384988984171272
 30
0.0
 11
42.398494164387429
 21
40.472568984171282
 31
0.0
  0
LINE
100
AcDbEntiry
  8
0
  6
Continuous
100
AcDbLine
 10
39.707369164387472
 20
38.155410984171283
 30
0.0
 11
42.072000164387461
 21
40.384988984171272
 31
0.0
  0
LINE
100
AcDbEntiry
  8
0
  6
Continuous
100
AcDbLine
 10
37.5302875672729
 20
15.545553999999999
 30
0.0
 11
37.662788999999997
 21
16.921634000000001
 31
0.0
  0
LINE
100
AcDbEntiry
  8
0
  6
Continuous
100
AcDbLine
 10
37.662788999999997
 20
16.921634000000001
 30
0.0
 11
39.707369164387472
 21
38.155410984171283
 31
0.0
  0
LINE
100
AcDbEntiry
  8
0
  6
Continuous
100
AcDbLine
 10
59.688986585786381
 20
9.6800379999999997
 30
0.0
 11
54.370146999999982
 21
22.520852000000001
 31
0.0
  0
LINE
100
AcDbEntiry
  8
0
  6
Continuous
100
AcDbLine
 10
54.370146999999982
 20
22.520852000000001
 30
0.0
 11
49.051307000000001
 21
35.361666999999997
 31
0.0
  0
LINE
100
AcDbEntiry
  8
0
  6
Continuous
100
AcDbLine
 10
59.688986585786374
 20
9.6800379999999961
 30
0.0
 11
60.383838389220017
 21
9.9678551826900268
 31
0.0
  0
LINE
100
AcDbEntiry
  8
0
  6
Continuous
100
AcDbLine
 10
60.383838389220017
 20
9.9678551826900268
 30
0.0
 11
63.257008943110591
 21
11.157961979739895
 31
0.0
  0
LINE
100
AcDbEntiry
  8
0
  6
Continuous
100
AcDbLine
 10
60.3105385113697
 20
9.7370072266779264
 30
0.0
 11
60.383838389220017
 21
9.9678551826900268
 31
0.0
  0
LINE
100
AcDbEntiry
  8
0
  6
Continuous
100
AcDbLine
 10
63.257008943110591
 20
11.15796173464366
 30
0.0
 11
57.93817
 21
23.998775999999999
 31
0.0
  0
LINE
100
AcDbEntiry
  8
0
  6
Continuous
100
AcDbLine
 10
57.93817
 20
23.998775999999999
 30
0.0
 11
52.619331166803583
 21
36.839590000000001
 31
0.0
  0
LINE
100
AcDbEntiry
  8
0
  6
Continuous
100
AcDbLine
 10
49.746159089907891
 20
35.649484058710925
 30
0.0
 11
49.531094223995467
 21
35.760887302017267
 31
0.0
  0
LINE
100
AcDbEntiry
  8
0
  6
Continuous
100
AcDbLine
 10
49.051307000000001
 20
35.361666999999997
 30
0.0
 11
49.746159089907891
 21
35.649484058710918
 31
0.0
  0
LINE
100
AcDbEntiry
  8
0
  6
Continuous
100
AcDbLine
 10
49.746159089907891
 20
35.649484058710918
 30
0.0
 11
52.619329999999998
 21
36.839589999999966
 31
0.0
  0
LINE
100
AcDbEntiry
  8
0
  6
Continuous
100
AcDbLine
 10
69.111583315069339
 20
20.666609566506992
 30
0.0
 11
67.410940248298303
 21
25.676542487853798
 31
0.0
  0
LINE
100
AcDbEntiry
  8
0
  6
Continuous
100
AcDbLine
 10
65.822790286318835
 20
29.510675665147044
 30
0.0
 11
63.482768989236384
 21
34.255769452012757
 31
0.0
  0
LINE
100
AcDbEntiry
  8
0
  6
Continuous
100
AcDbLine
 10
38.597014999999999
 20
14.666211000000006
 30
0.0
 11
40.250818999999993
 21
16.672435
 31
0.0
  0
LINE
100
AcDbEntiry
  8
0
  6
Continuous
100
AcDbLine
 10
61.407751066244188
 20
37.849805921251367
 30
0.0
 11
58.468389952019926
 21
42.248870703354171
 31
0.0
  0
LINE
100
AcDbEntiry
  8
0
  6
Continuous
100
AcDbLine
 10
40.250818999999993
 20
16.672435
 30
0.0
 11
37.662788999999997
 21
16.921634000000001
 31
0.0
  0
LINE
100
AcDbEntiry
  8
0
  6
Continuous
100
AcDbLine
 10
55.942008199981018
 20
45.541315504094378
 30
0.0
 11
52.453600552224188
 21
49.519082063361346
 31
0.0
  0
LINE
100
AcDbEntiry
  8
0
  6
Continuous
100
AcDbLine
 10
37.530287000000001
 20
15.545560605497091
 30
0.0
 11
40.250818999999993
 21
16.672440724932155
 31
0.0
  0
LINE
100
AcDbEntiry
  8
0
  6
Continuous
100
AcDbLine
 10
54.370146999999982
 20
22.520851999999998
 30
0.0
 11
57.938169999999992
 21
23.998774033038785
 31
0.0
  0
ARC
100
AcDbEntity
  8
0
  6
Continuous
100
AcDbCircle
 10
0
 20
0
 30
0.0
 40
66
100
AcDbArc
 50
0
 51
2.5284656189304919
  0
ARC
100
AcDbEntity
  8
0
  6
Continuous
100
AcDbCircle
 10
0
 20
0
 30
0.0
 40
66
100
AcDbArc
 50
2.5284656189304919
 51
4.9715343810695085
  0
ARC
100
AcDbEntity
  8
0
  6
Continuous
100
AcDbCircle
 10
0
 20
0
 30
0.0
 40
66
100
AcDbArc
 50
4.9715343810695076
 51
10.02846561893049
  0
ARC
100
AcDbEntity
  8
0
  6
Continuous
100
AcDbCircle
 10
0
 20
0
 30
0.0
 40
66
100
AcDbArc
 50
10.02846561893049
 51
12.471534381069505
  0
ARC
100
AcDbEntity
  8
0
  6
Continuous
100
AcDbCircle
 10
0
 20
0
 30
0.0
 40
66
100
AcDbArc
 50
12.471534381069505
 51
17.52846561893049
  0
ARC
100
AcDbEntity
  8
0
  6
Continuous
100
AcDbCircle
 10
0
 20
0
 30
0.0
 40
66
100
AcDbArc
 50
17.52846561893049
 51
19.97153438106951
  0
ARC
100
AcDbEntity
  8
0
  6
Continuous
100
AcDbCircle
 10
0
 20
0
 30
0.0
 40
66
100
AcDbArc
 50
19.971534381069507
 51
25.0284656189305
  0
ARC
100
AcDbEntity
  8
0
  6
Continuous
100
AcDbCircle
 10
0
 20
0
 30
0.0
 40
66
100
AcDbArc
 50
25.0284656189305
 51
27.471534381069503
  0
ARC
100
AcDbEntity
  8
0
  6
Continuous
100
AcDbCircle
 10
0
 20
0
 30
0.0
 40
66
100
AcDbArc
 50
27.471534381069507
 51
32.528465618930497
  0
ARC
100
AcDbEntity
  8
0
  6
Continuous
100
AcDbCircle
 10
0
 20
0
 30
0.0
 40
66
100
AcDbArc
 50
32.528465618930497
 51
34.971534381069503
  0
ARC
100
AcDbEntity
  8
0
  6
Continuous
100
AcDbCircle
 10
0
 20
0
 30
0.0
 40
66
100
AcDbArc
 50
34.971534381069503
 51
40.028465618930497
  0
ARC
100
AcDbEntity
  8
0
  6
Continuous
100
AcDbCircle
 10
0
 20
0
 30
0.0
 40
66
100
AcDbArc
 50
40.028465618930497
 51
42.471534381069517
  0
ARC
100
AcDbEntity
  8
0
  6
Continuous
100
AcDbCircle
 10
0
 20
0
 30
0.0
 40
66
100
AcDbArc
 50
42.47153438106951
 51
45
  0
ARC
100
AcDbEntity
  8
0
  6
Continuous
100
AcDbCircle
 10
0
 20
0
 30
0.0
 40
99
100
AcDbArc
 50
0
 51
44.999999999999986
  0
ARC
100
AcDbEntity
  8
0
  6
Continuous
100
AcDbCircle
 10
0
 20
0
 30
0.0
 40
65.5
100
AcDbArc
 50
0
 51
44.999999999999986
  0
ARC
100
AcDbEntity
  8
0
  6
Continuous
100
AcDbCircle
 10
85.002385656928567
 20
4.2189147452924374
 30
0.0
 40
2.1439000000000021
100
AcDbArc
 50
0
 51
3.7500000000004801
  0
ARC
100
AcDbEntity
  8
0
  6
Continuous
100
AcDbCircle
 10
85.002385656928567
 20
4.2189147452924374
 30
0.0
 40
2.1439000000000008
100
AcDbArc
 50
269.99998588264953
 51
0
  0
ARC
100
AcDbEntity
  8
0
  6
Continuous
100
AcDbCircle
 10
84.825857341080734
 20
6.9122163846250189
 30
0.0
 40
2.1439000000000084
100
AcDbArc
 50
3.7500000000002678
 51
97.500014117351128
  0
ARC
100
AcDbEntity
  8
0
  6
Continuous
100
AcDbCircle
 10
83.724499587072671
 20
15.277859074213598
 30
0.0
 40
2.1439000000000021
100
AcDbArc
 50
0
 51
11.250000000000497
  0
ARC
100
AcDbEntity
  8
0
  6
Continuous
100
AcDbCircle
 10
83.724499587072671
 20
15.277859074213598
 30
0.0
 40
2.1438999999999986
100
AcDbArc
 50
277.49998588264918
 51
0
  0
ARC
100
AcDbEntity
  8
0
  6
Continuous
100
AcDbCircle
 10
83.197935087956253
 20
17.92507757577291
 30
0.0
 40
2.1438999999999981
100
AcDbArc
 50
11.250000000000265
 51
105.00001411735137
  0
ARC
100
AcDbEntity
  8
0
  6
Continuous
100
AcDbCircle
 10
81.014064116465235
 20
26.075394998552191
 30
0.0
 40
2.1439000000000021
100
AcDbArc
 50
0
 51
18.750000000000409
  0
ARC
100
AcDbEntity
  8
0
  6
Continuous
100
AcDbCircle
 10
81.014064116465235
 20
26.075394998552191
 30
0.0
 40
2.1439000000000012
100
AcDbArc
 50
284.99998588264953
 51
0
  0
ARC
100
AcDbEntity
  8
0
  6
Continuous
100
AcDbCircle
 10
80.146473098651384
 20
28.631235719828922
 30
0.0
 40
2.1439000000000288
100
AcDbArc
 50
18.750000000000075
 51
112.50001411735091
  0
ARC
100
AcDbEntity
  8
0
  6
Continuous
100
AcDbCircle
 10
76.917455547483073
 20
36.426773685000256
 30
0.0
 40
2.1439000000000021
100
AcDbArc
 50
0
 51
26.25000000000032
  0
ARC
100
AcDbEntity
  8
0
  6
Continuous
100
AcDbCircle
 10
76.917455547483073
 20
36.426773685000256
 30
0.0
 40
2.1438999999999995
100
AcDbArc
 50
292.4999858826493
 51
0
  0
ARC
100
AcDbEntity
  8
0
  6
Continuous
100
AcDbCircle
 10
75.723682733828255
 20
38.847505482640443
 30
0.0
 40
2.1439000000000057
100
AcDbArc
 50
26.25000000000032
 51
120.00001411735133
  0
ARC
100
AcDbEntity
  8
0
  6
Continuous
100
AcDbCircle
 10
71.504767988535932
 20
46.15488017428828
 30
0.0
 40
2.1439000000000021
100
AcDbArc
 50
0
 51
33.750000000000519
  0
ARC
100
AcDbEntity
  8
0
  6
Continuous
100
AcDbCircle
 10
71.504767988535932
 20
46.15488017428828
 30
0.0
 40
2.1438999999999986
100
AcDbArc
 50
299.99998588264936
 51
0
  0
ARC
100
AcDbEntity
  8
0
  6
Continuous
100
AcDbCircle
 10
70.005239162858118
 20
48.399083656080656
 30
0.0
 40
2.1439000000000075
100
AcDbArc
 50
33.750000000000156
 51
127.50001411735079
  0
ARC
100
AcDbEntity
  8
0
  6
Continuous
100
AcDbCircle
 10
64.868614024437861
 20
55.093263867243913
 30
0.0
 40
2.1439000000000021
100
AcDbArc
 50
0
 51
41.250000000000249
  0
ARC
100
AcDbEntity
  8
0
  6
Continuous
100
AcDbCircle
 10
64.868614024437861
 20
55.093263867243913
 30
0.0
 40
2.1438999999999995
100
AcDbArc
 50
307.49998588264975
 51
0
  0
ARC
100
AcDbEntity
  8
0
  6
Continuous
100
AcDbCircle
 10
63.088986540692375
 20
57.122540089404254
 30
0.0
 40
2.1439000000000132
100
AcDbArc
 50
41.250000000000135
 51
135.0000141173511
  0
ARC
100
AcDbEntity
  8
0
  6
Continuous
100
AcDbCircle
 10
0
 20
0
 30
0.0
 40
65
100
AcDbArc
 50
0
 51
44.999999999999993
  0
ARC
100
AcDbEntity
  8
0
  6
Continuous
100
AcDbCircle
 10
29.536428999999991
 20
12.234388999999988
 30
0.0
 40
4.9400000000000119
100
AcDbArc
 50
0
 51
22.500000000000085
  0
ARC
100
AcDbEntity
  8
0
  6
Continuous
100
AcDbCircle
 10
29.536428999999991
 20
12.234388999999988
 30
0.0
 40
4.9400000000000146
100
AcDbArc
 50
22.500000000000085
 51
202.49999999999989
  0
ARC
100
AcDbEntity
  8
0
  6
Continuous
100
AcDbCircle
 10
29.536428999999991
 20
12.234388999999988
 30
0.0
 40
4.940000000000011
100
AcDbArc
 50
202.49999999999989
 51
0
  0
ARC
100
AcDbEntity
  8
0
  6
Continuous
100
AcDbCircle
 10
0
 20
0
 30
0.0
 40
22.225000000000001
100
AcDbArc
 50
0
 51
45
  0
ARC
100
AcDbEntity
  8
0
  6
Continuous
100
AcDbCircle
 10
63.820905834144192
 20
0.0011088387925524033
 30
0.0
 40
3.3924360003954597
100
AcDbArc
 50
85.340795809489379
 51
180.01872748199153
  0
ARC
100
AcDbEntity
  8
0
  6
Continuous
100
AcDbCircle
 10
45.128978873066636
 20
45.127411583255018
 30
0.0
 40
3.3924360336198633
100
AcDbArc
 50
224.98128674558816
 51
319.65920863333804
  0
ARC
100
AcDbEntity
  8
0
  6
Continuous
100
AcDbCircle
 10
60.812086409336878
 20
9.7048146429908471
 30
0.0
 40
0.50257999999974612
100
AcDbArc
 50
176.32742480653462
 51
259.16930080658886
  0
ARC
100
AcDbEntity
  8
0
  6
Continuous
100
AcDbCircle
 10
62.049064802378339
 20
16.170540439847397
 30
0.0
 40
7.085567591129589
100
AcDbArc
 50
259.16942430345352
 51
277.93400446098315
  0
ARC
100
AcDbEntity
  8
0
  6
Continuous
100
AcDbCircle
 10
61.099789729480932
 20
10.389540242364017
 30
0.0
 40
2.2899926474664198
100
AcDbArc
 50
0
 51
19.606370665045496
  0
ARC
100
AcDbEntity
  8
0
  6
Continuous
100
AcDbCircle
 10
61.099789729480932
 20
10.389540242364017
 30
0.0
 40
2.2899926474664234
100
AcDbArc
 50
327.31201186191828
 51
0
  0
ARC
100
AcDbEntity
  8
0
  6
Continuous
100
AcDbCircle
 10
50.550588544196266
 20
35.85756082066068
 30
0.0
 40
2.289993999999739
100
AcDbArc
 50
25.393637999997704
 51
77.687977000003656
  0
ARC
100
AcDbEntity
  8
0
  6
Continuous
100
AcDbCircle
 10
55.309616685936213
 20
32.441016425784206
 30
0.0
 40
7.0855701004383311
100
AcDbArc
 50
127.06602212043732
 51
145.83059798936071
  0
ARC
100
AcDbEntity
  8
0
  6
Continuous
100
AcDbCircle
 10
49.862977756819447
 20
36.13829840267298
 30
0.0
 40
0.50257916615974441
100
AcDbArc
 50
145.83064874541915
 51
228.67261194031823
  0
ENDSEC
  0
EOF
